<?xml version="1.0" encoding="utf-8"?>
<!-- Generator: Adobe Illustrator 24.1.1, SVG Export Plug-In . SVG Version: 6.00 Build 0)  -->
<svg version="1.1" id="Layer_1" xmlns="http://www.w3.org/2000/svg" xmlns:xlink="http://www.w3.org/1999/xlink" x="0px" y="0px"
	 viewBox="0 0 260 260" style="enable-background:new 0 0 260 260;" xml:space="preserve">
<style type="text/css">
	.st0{stroke:#990024;stroke-width:0.4343;stroke-miterlimit:1.2673;}
	.st1{fill:none;stroke:#990024;stroke-miterlimit:10;}
	.st2{fill:none;stroke:#990024;stroke-linecap:round;stroke-linejoin:round;}
	.st3{fill:none;stroke:#990024;stroke-width:3;stroke-linecap:round;stroke-linejoin:round;}
	.st4{stroke:#990024;stroke-miterlimit:10;}
	.st5{fill:none;stroke:#990024;stroke-width:1.4265;stroke-miterlimit:5.3041;}
</style>
<path id="path14364-7" class="st0" d="M166.8,14.9"/>
<path id="path14366-8" class="st0" d="M166.8,14.9"/>
<path id="path14368-2" class="st0" d="M166.8,14.9"/>
<path id="path14370-5" class="st0" d="M166.8,14.9"/>
<path id="path14372-5" class="st0" d="M166.8,14.9"/>
<path class="st1" d="M30.8,11.7V150c0,54.7,44,98.7,98.7,98.7s98.7-44,98.7-98.7V11.7H30.8z"/>
<path class="st2" d="M137.5,12.1v235.6c0.3,0,0.6,0.1,0.8,0.2c0.1-0.1,0.2-0.1,0.4-0.2c1.5-0.5,3.2-0.5,4.7-0.7
	c2-0.2,3.9-0.8,5.9-1.3c2.5-0.5,5.3-1.6,8-1.8V12.1H137.5z"/>
<path class="st2" d="M174.2,12.7v224.4c1.3-1.1,3-1.5,4.4-2.4c1.6-1.1,3.3-2.1,5.2-2.6c1-1,2-1.9,3.1-2.7c0.6-0.4,1.3-0.7,1.9-1
	c0.8-0.6,1.7-1,2.6-1.5c0.3-0.3,0.7-0.5,1-0.8c0.5-0.5,1-1.1,1.5-1.6V12.7H174.2z"/>
<path class="st2" d="M208.5,11.7v197.5c12.4-16.5,19.7-37,19.7-59.2V11.7H208.5z"/>
<path class="st3" d="M31.2,12.1V150c0,54.5,43.8,98.3,98.3,98.3s98.3-43.8,98.3-98.3V12.1H31.2z"/>
<path class="st1" d="M137.5,245.4"/>
<g id="XMLID_6_">
	<g>
		<path class="st1" d="M65,132.5L65,132.5c0,0.6,0.4,12.4,9.5,12.4c9.4,0,9.5,12.4,9.5,12.4"/>
		<path class="st1" d="M103.2,132.5c0,0,0,0.1,0,0.2c-0.3,1.6-2.5,12.2-9.5,12.2c-7.6,0-9.5,12.4-9.5,12.4"/>
		<path class="st1" d="M103.2,132.7L103.2,132.7c0.3,0.1,11.9,3.5,14.7-5.3c2.9-8.9,14.7-5.3,14.7-5.3"/>
		<path class="st1" d="M114.8,96.3C114.8,96.3,114.9,96.3,114.8,96.3c1,0.5,11.1,6,8.9,12.9c-2.3,7.2,8.9,12.9,8.9,12.9"/>
		<path class="st1" d="M114.2,64.9c-0.1,0.2-7,10.2,0.5,15.6c7.1,5.1,1,14.7,0.3,15.8c0,0.1-0.1,0.1-0.1,0.1"/>
		<path class="st1" d="M84.2,73.8c0,0,8.9-8.9,15-4.5s14.9-4.4,15-4.5l0,0"/>
		<path class="st1" d="M84.2,74C84.2,74,84.2,74,84.2,74c-0.9-1.2-7.9-9.6-15-4.5c-7.5,5.4-14.8-4.3-15-4.5"/>
		<path class="st1" d="M53.2,96.3L53.2,96.3c-0.5-1-5.4-11.4,0.5-15.6c6.1-4.4,0.6-15.4,0.5-15.6l0,0"/>
		<path class="st1" d="M53.2,96.2L53.2,96.2c-1.2,0.4-11.6,4.5-8.9,12.9c2.9,8.9-8.9,12.9-8.9,12.9"/>
		<path class="st1" d="M65,132.5L65,132.5c-0.2,0-12.4,1.9-14.7-5.3s-14.7-5.3-14.7-5.3"/>
	</g>
</g>
<g id="XMLID_5_">
	<g>
		<polyline class="st1" points="84.1,106.3 84.1,120.2 84.1,120.3 84.1,120.5 		"/>
		<line class="st1" x1="84.1" y1="106.3" x2="97.6" y2="110.7"/>
		<polyline class="st1" points="84.1,106.3 92.4,94.9 92.4,94.9 92.5,94.8 		"/>
		<polyline class="st1" points="84.1,106.3 75.9,95 75.8,94.9 75.8,94.8 		"/>
		<line class="st1" x1="84.1" y1="106.3" x2="70.6" y2="110.7"/>
		<path class="st1" d="M92.4,94.9c0,0-0.5-4.7-4.2-4.7s-4.1-4.6-4.1-4.6"/>
		<path class="st1" d="M75.8,94.9c0,0,0-4.6,4.1-4.6s4.1-4.6,4.1-4.6"/>
		<path class="st1" d="M75.9,95.1c0,0-4.6-1-5.8,2.5c-1.1,3.5-5.6,2.5-5.6,2.5"/>
		<path class="st1" d="M70.8,110.8c0,0-0.1,0-0.2-0.1c-0.8-0.3-4.1-1.8-2.9-5.3c1.3-3.9-3.1-5.4-3.1-5.4"/>
		<path class="st1" d="M70.7,110.6C70.7,110.6,70.7,110.6,70.7,110.6L70.7,110.6c-0.5,0.8-2.1,4.3,0.6,6.2c2.9,2.1,0.7,5.9,0.6,6.1"
			/>
		<path class="st1" d="M84,120.3c0,0-2.7,3.7-6.1,1.3c-3.3-2.4-5.9,1.1-6.1,1.3l0,0"/>
		<path class="st1" d="M84.1,120.2L84.1,120.2c0.3,0.4,3.3,3.4,6.1,1.3c2.9-2.1,5.8,1.2,6,1.3"/>
		<path class="st1" d="M97.5,110.5C97.5,110.5,97.5,110.5,97.5,110.5L97.5,110.5c0.6,0.9,2.3,4-0.7,6.1c-3.3,2.4-0.8,6-0.7,6.2l0,0"
			/>
		<path class="st1" d="M97.6,110.6L97.6,110.6c0.1-0.1,4.3-2,3.1-5.4c-1.1-3.5,3.1-5.3,3.1-5.3"/>
		<path class="st1" d="M92.4,94.9c0,0,4.4-1.4,5.7,2.5c1.3,3.9,5.7,2.5,5.7,2.5"/>
	</g>
</g>
<line class="st1" x1="75.8" y1="95.1" x2="84.1" y2="106.3"/>
<line class="st1" x1="70.7" y1="110.6" x2="84.1" y2="106.3"/>
<line class="st1" x1="84.1" y1="120.1" x2="84.1" y2="106.3"/>
<line class="st1" x1="97.5" y1="110.6" x2="84.1" y2="106.3"/>
<line class="st1" x1="92.4" y1="94.9" x2="84.1" y2="106.3"/>
<polygon class="st4" points="85.6,107.9 84.7,107.2 84.9,108.4 84.3,107.4 84.1,108.5 83.9,107.4 83.2,108.3 83.5,107.2 82.5,107.8 
	83.2,106.9 82.1,107.1 83,106.5 81.9,106.3 83,106.1 82.1,105.4 83.2,105.7 82.6,104.7 83.5,105.4 83.3,104.3 83.9,105.2 
	84.2,104.1 84.4,105.2 85,104.3 84.7,105.4 85.7,104.8 85,105.7 86.2,105.5 85.2,106.1 86.3,106.4 85.2,106.5 86.1,107.2 85,106.9 
	"/>
<line class="st1" x1="53.2" y1="96.3" x2="64.9" y2="100.1"/>
<line class="st1" x1="84.1" y1="73.4" x2="84" y2="87.4"/>
<line class="st1" x1="115.2" y1="96.3" x2="103.1" y2="100.1"/>
<line class="st1" x1="103.2" y1="132.5" x2="95.5" y2="121.8"/>
<line class="st1" x1="65" y1="132.5" x2="71.9" y2="122.9"/>
<path class="st1" d="M84.6,138.8c0,0-1.9-3.4-7.1,0s-6.9,0-6.9,0l9.2-11.1c2.4-2.9,6.8-2.9,9.2-0.1l9.7,11.2c0,0-1.7,3.4-6.9,0
	S84.6,138.8,84.6,138.8"/>
<path class="st1" d="M83.9,98.4c0,0,0.5,0.8,1.7,0s1.6,0,1.6,0l-2.2,2.7c-0.6,0.7-1.6,0.7-2.2,0l-2.3-2.7c0,0,0.4-0.8,1.6,0
	S83.9,98.4,83.9,98.4"/>
<path class="st1" d="M76.2,104.1c0,0,0.9-0.2,0.5-1.6s0.5-1.6,0.5-1.6l1.9,2.9c0.5,0.8,0.2,1.8-0.7,2.1l-3.3,1.4
	c0,0-0.6-0.6,0.5-1.6C76.8,104.8,76.2,104.1,76.2,104.1"/>
<path class="st1" d="M79.3,113.2c0,0,0.1-0.9-1.4-1s-1.3-1-1.3-1l3.3-0.9c0.9-0.2,1.7,0.4,1.8,1.3l0.3,3.5c0,0-0.8,0.4-1.3-1
	C80.1,112.8,79.3,113.2,79.3,113.2"/>
<path class="st1" d="M88.8,113.1c0,0-0.8-0.4-1.4,1c-0.5,1.4-1.3,1-1.3,1l0.2-3.4c0.1-0.9,0.9-1.5,1.8-1.3l3.5,0.8
	c0,0,0.2,0.9-1.3,1S88.8,113.1,88.8,113.1"/>
<path class="st1" d="M91.7,104c0,0-0.6,0.7,0.5,1.6c1.2,0.9,0.5,1.6,0.5,1.6l-3.2-1.3c-0.8-0.3-1.2-1.3-0.7-2.1l1.8-3
	c0,0,0.9,0.1,0.5,1.6C90.8,103.8,91.7,104,91.7,104"/>
<path class="st1" d="M115.4,116c0,0-3.8,0.8-2.2,6.8c1.6,6-2.1,6.6-2.1,6.6l-7.8-12.2c-2-3.1-0.7-7.3,2.7-8.8l13.7-5.7
	c0,0,2.7,2.6-2.1,6.6C112.8,113.1,115.4,116,115.4,116"/>
<path class="st1" d="M103.2,79.6c0,0-0.5,3.9,5.8,4.2c6.2,0.3,5.6,4.1,5.6,4.1l-14,3.6c-3.6,0.9-7.2-1.6-7.5-5.3l-1.2-14.8
	c0,0,3.3-1.8,5.6,4.1S103.2,79.6,103.2,79.6"/>
<path class="st1" d="M64.9,80c0,0,3.5,1.6,5.8-4.2c2.2-5.8,5.6-4.1,5.6-4.1l-0.9,14.4c-0.2,3.7-3.8,6.4-7.4,5.5l-14.4-3.4
	c0,0-0.6-3.7,5.6-4.1S64.9,80,64.9,80"/>
<path class="st1" d="M53.4,116.6c0,0,2.6-2.9-2.2-6.8s-2.1-6.6-2.1-6.6l13.4,5.3c3.5,1.4,4.9,5.5,2.9,8.7l-7.7,12.7
	c0,0-3.7-0.5-2.1-6.6C57.2,117.3,53.4,116.6,53.4,116.6"/>
<g id="g23677_9_" transform="matrix(-0.95099005,0,0,-0.95099005,-291.68914,-1688.9881)">
	<path id="path23679_9_" class="st5" d="M-395.4-1853.5c8,6.7,6,4.7,5.9,7.6c-1.3-0.1-1.8-0.5-2.4-1.3c0.2,1.9-1,2.5-3.2,4.8
		c-2.3-2.3-3.5-2.9-3.2-4.8c-0.6,0.8-1.1,1.2-2.4,1.3C-401.4-1849.5-403.4-1847.5-395.4-1853.5z"/>
	<path class="st1" d="M-389-1848.5"/>
</g>
<g id="g23677_8_" transform="matrix(-0.95099005,0,0,-0.95099005,-291.68914,-1688.9881)">
	<path id="path23679_8_" class="st5" d="M-362.3-1877c8.9-5.6,6.3-4.3,9-3.3c-0.5,1.2-1,1.6-2,1.9c1.9,0.4,2.1,1.7,3.6,4.6
		c-2.9,1.4-3.8,2.4-5.6,1.6c0.6,0.8,0.8,1.4,0.5,2.7C-360.3-1870-359.1-1867.5-362.3-1877z"/>
	<path class="st1" d="M-355.6-1881.5"/>
</g>
<g id="g23677_7_" transform="matrix(-0.95099005,0,0,-0.95099005,-291.68914,-1688.9881)">
	<path id="path23679_7_" class="st5" d="M-374.8-1915.7c-2.6-10.2-2.1-7.3-0.3-9.6c1,0.9,1.2,1.5,1.2,2.5c0.9-1.7,2.3-1.5,5.4-2
		c0.5,3.2,1.1,4.4-0.2,5.8c1-0.3,1.6-0.3,2.7,0.4C-367.5-1915.5-364.7-1915.9-374.8-1915.7z"/>
	<path class="st1" d="M-377-1923.6"/>
</g>
<g id="g23677_6_" transform="matrix(-0.95099005,0,0,-0.95099005,-291.68914,-1688.9881)">
	<path id="path23679_6_" class="st5" d="M-415.4-1915.9c-10.5-0.7-7.6-0.3-9.2-2.6c1.2-0.7,1.8-0.6,2.7-0.4
		c-1.3-1.4-0.7-2.6-0.2-5.8c3.2,0.5,4.5,0.3,5.4,2c0-1,0.2-1.6,1.2-2.5C-412.9-1922.7-412.5-1925.5-415.4-1915.9z"/>
	<path class="st1" d="M-423.5-1916.2"/>
</g>
<g id="g23677_5_" transform="matrix(-0.95099005,0,0,-0.95099005,-291.68914,-1688.9881)">
	<path id="path23679_5_" class="st5" d="M-428.1-1877.2c-3.9,9.7-2.6,7.2-5.4,8c-0.3-1.3-0.1-1.9,0.5-2.7c-1.8,0.8-2.7-0.1-5.6-1.6
		c1.5-2.9,1.7-4.2,3.6-4.6c-1-0.4-1.5-0.7-2-1.9C-433.8-1881.7-436.3-1883-428.1-1877.2z"/>
	<path class="st1" d="M-430.9-1869.6"/>
</g>
</svg>
