<?xml version="1.0" encoding="utf-8"?>
<!-- Generator: Adobe Illustrator 24.1.1, SVG Export Plug-In . SVG Version: 6.00 Build 0)  -->
<svg version="1.1" id="Layer_1" xmlns="http://www.w3.org/2000/svg" xmlns:xlink="http://www.w3.org/1999/xlink" x="0px" y="0px"
	 viewBox="0 0 316.5 284.5" style="enable-background:new 0 0 316.5 284.5;" xml:space="preserve">
<style type="text/css">
	.st0{fill:#181616;}
</style>
<g id="Figma">
	<path class="st0" d="M64.6,235.9c0-25.9,21-46.8,46.8-46.8h46.8v46.8c0,25.9-21,46.8-46.8,46.8S64.6,261.8,64.6,235.9z
		 M111.4,189.1h46.8V95.4h-46.8c-25.9,0-46.8,21-46.8,46.8S85.6,189.1,111.4,189.1z M111.4,95.4h46.8V1.8h-46.8
		c-25.9,0-46.8,21-46.8,46.8S85.6,95.4,111.4,95.4z M158.3,95.4h46.8c25.9,0,46.8-21,46.8-46.8S231,1.8,205.1,1.8h-46.8V95.4z
		 M205.1,95.4c-25.9,0-46.8,21-46.8,46.8s21,46.8,46.8,46.8s46.8-21,46.8-46.8S231,95.4,205.1,95.4z"/>
</g>
</svg>
