<?xml version="1.0" encoding="utf-8"?>
<!-- Generator: Adobe Illustrator 24.1.1, SVG Export Plug-In . SVG Version: 6.00 Build 0)  -->
<svg version="1.1" id="Layer_1" xmlns="http://www.w3.org/2000/svg" xmlns:xlink="http://www.w3.org/1999/xlink" x="0px" y="0px"
	 viewBox="0 0 316.5 284.5" style="enable-background:new 0 0 316.5 284.5;" xml:space="preserve">
<style type="text/css">
	.st0{fill:none;stroke:#261300;stroke-miterlimit:10;}
	.st1{fill:#181616;}
</style>
<g>
	<path class="st0" d="M24.5,12.2H292v260.2H24.5V12.2z"/>
	<path class="st1" d="M12.4,0v284.5h291.8V0H12.4z M24.5,12.2H292v260.2H24.5V12.2z"/>
	<path class="st1" d="M113.7,161.1l-9.6,36.5c-0.2,1-0.6,1.2-1.8,1.2H84.3c-1.2,0-1.5-0.4-1.2-1.8l34.5-120.9
		c0.6-2.2,1-4.1,1.2-10.1c0-0.9,0.4-1.2,1-1.2h25.5c0.9,0,1.2,0.2,1.5,1.2l38.7,131.2c0.2,1,0,1.6-1,1.6h-20.2c-1,0-1.6-0.2-1.8-1.1
		l-10.1-36.6H113.7L113.7,161.1z M147.5,141.4C144,127.9,136,98.5,133,84.3h-0.2c-2.6,14.2-9,38.3-14.1,57.1H147.5z M202.2,73.8
		c0-7.8,5.5-12.4,12.4-12.4c7.4,0,12.4,5,12.4,12.4c0,8-5.2,12.4-12.6,12.4C207.3,86.2,202.2,81.8,202.2,73.8L202.2,73.8z
		 M203.6,101.4c0-1,0.4-1.5,1.5-1.5h19.1c1,0,1.5,0.4,1.5,1.5v95.9c0,1-0.2,1.5-1.5,1.5h-18.8c-1.2,0-1.6-0.6-1.6-1.6v-95.8H203.6z"
		/>
</g>
</svg>
