<?xml version="1.0" encoding="utf-8"?>
<!-- Generator: Adobe Illustrator 24.1.1, SVG Export Plug-In . SVG Version: 6.00 Build 0)  -->
<svg version="1.1" id="Layer_1" xmlns="http://www.w3.org/2000/svg" xmlns:xlink="http://www.w3.org/1999/xlink" x="0px" y="0px"
	 viewBox="0 0 316.5 284.5" style="enable-background:new 0 0 316.5 284.5;" xml:space="preserve">
<style type="text/css">
	.st0{fill:#181616;}
	.st1{fill:none;}
</style>
<g>
	<path class="st0" d="M316.5,142.6c0-21-26.3-40.8-66.5-53.2c9.3-41,5.2-73.7-13-84.1c-4.2-2.5-9.1-3.6-14.4-3.6v14.4
		c3,0,5.4,0.6,7.4,1.7c8.8,5,12.6,24.2,9.6,48.8c-0.7,6.1-1.9,12.4-3.3,19c-12.6-3.1-26.4-5.5-41-7c-8.7-11.9-17.7-22.8-26.8-32.3
		c21-19.5,40.8-30.3,54.2-30.3V1.6l0,0c-17.7,0-41,12.6-64.4,34.6C134.7,14.4,111.4,1.9,93.7,1.9v14.4c13.4,0,33.2,10.6,54.2,30.1
		c-9,9.5-18.1,20.3-26.6,32.2c-14.6,1.5-28.4,3.9-41,7.1c-1.5-6.5-2.6-12.7-3.4-18.7c-3-24.6,0.7-43.8,9.4-48.9
		c1.9-1.2,4.5-1.7,7.4-1.7V1.9l0,0c-5.4,0-10.3,1.2-14.6,3.6C61,16,56.9,48.6,66.3,89.5C26.2,101.8,0,121.7,0,142.6
		c0,21,26.3,40.8,66.5,53.2c-9.3,41-5.2,73.7,13,84.1c4.2,2.5,9.1,3.6,14.5,3.6c17.7,0,41-12.6,64.4-34.6
		c23.5,21.8,46.7,34.3,64.4,34.3c5.4,0,10.3-1.2,14.6-3.6c18.1-10.5,22.2-43,12.8-83.9C290.4,183.3,316.5,163.5,316.5,142.6z
		 M232.5,99.5c-2.4,8.3-5.4,16.9-8.7,25.5c-2.6-5.2-5.4-10.3-8.5-15.5c-3-5.2-6.1-10.2-9.3-15.1C215.2,95.8,224.1,97.5,232.5,99.5z
		 M203,168.2c-5,8.7-10.2,17-15.5,24.6c-9.6,0.8-19.4,1.3-29.2,1.3c-9.7,0-19.5-0.5-29-1.2c-5.4-7.7-10.6-15.9-15.6-24.5
		c-4.9-8.5-9.4-17-13.4-25.7c4-8.6,8.5-17.3,13.4-25.7c5-8.7,10.2-17,15.5-24.6c9.6-0.8,19.4-1.3,29.2-1.3c9.7,0,19.5,0.5,29,1.2
		c5.4,7.7,10.6,15.9,15.6,24.5c4.9,8.5,9.4,17,13.4,25.7C212.3,151.1,207.8,159.8,203,168.2z M223.8,159.8
		c3.5,8.6,6.5,17.3,8.9,25.7c-8.5,2.1-17.4,3.8-26.6,5.2c3.2-5,6.3-10.1,9.3-15.3C218.4,170.2,221.2,165,223.8,159.8z M158.4,228.7
		c-6-6.2-12-13.1-17.9-20.6c5.8,0.3,11.7,0.5,17.7,0.5c6.1,0,12.1-0.1,17.9-0.5C170.3,215.6,164.3,222.5,158.4,228.7z M110.4,190.7
		c-9.2-1.4-18-3-26.4-5.1c2.4-8.3,5.4-16.9,8.7-25.5c2.6,5.2,5.4,10.3,8.5,15.5S107.3,185.8,110.4,190.7z M158.1,56.4
		c6,6.2,12,13.1,17.9,20.6c-5.8-0.3-11.7-0.5-17.7-0.5c-6.1,0-12.1,0.1-17.9,0.5C146.1,69.5,152.1,62.6,158.1,56.4z M110.3,94.4
		c-3.2,5-6.3,10.1-9.3,15.3c-3,5.2-5.7,10.3-8.4,15.5c-3.5-8.6-6.5-17.3-8.9-25.7C92.2,97.5,101.1,95.8,110.3,94.4z M52,175.2
		c-22.8-9.7-37.6-22.5-37.6-32.6c0-10.1,14.8-23,37.6-32.6c5.5-2.4,11.6-4.5,17.9-6.5c3.7,12.6,8.5,25.8,14.5,39.3
		c-5.9,13.4-10.7,26.5-14.3,39.1C63.6,179.8,57.6,177.6,52,175.2z M86.7,267.4c-8.8-5-12.6-24.2-9.6-48.8c0.7-6.1,1.9-12.4,3.3-19
		c12.6,3.1,26.4,5.5,41,7c8.7,11.9,17.7,22.8,26.8,32.3c-21,19.5-40.8,30.3-54.2,30.3C91.1,269,88.6,268.5,86.7,267.4z M239.7,218.2
		c3,24.6-0.7,43.8-9.4,48.9c-1.9,1.2-4.5,1.7-7.4,1.7c-13.4,0-33.2-10.6-54.2-30.1c9-9.5,18.1-20.3,26.6-32.2
		c14.6-1.5,28.4-3.9,41-7.1C237.8,206,239,212.2,239.7,218.2z M264.5,175.2c-5.5,2.4-11.6,4.5-17.9,6.5
		c-3.7-12.6-8.5-25.8-14.5-39.3c5.9-13.4,10.7-26.5,14.3-39.1c6.4,2,12.4,4.2,18.1,6.6c22.8,9.7,37.6,22.5,37.6,32.6
		C302.1,152.7,287.4,165.5,264.5,175.2z"/>
	<path class="st0" d="M93.6,1.9L93.6,1.9L93.6,1.9z"/>
	<circle class="st0" cx="158.2" cy="142.6" r="29.5"/>
	<path class="st0" d="M222.5,1.7L222.5,1.7L222.5,1.7z"/>
</g>
<rect id="_x3C_Slice_x3E_" x="0" y="1.9" class="st1" width="316.5" height="281.6"/>
</svg>
