<?xml version="1.0" encoding="utf-8"?>
<!-- Generator: Adobe Illustrator 24.1.1, SVG Export Plug-In . SVG Version: 6.00 Build 0)  -->
<svg version="1.1" id="Layer_1" xmlns="http://www.w3.org/2000/svg" xmlns:xlink="http://www.w3.org/1999/xlink" x="0px" y="0px"
	 viewBox="0 0 260 260" style="enable-background:new 0 0 260 260;" xml:space="preserve">
<style type="text/css">
	.st0{fill:none;stroke:#990024;stroke-width:4;stroke-miterlimit:10;}
	.st1{fill:none;stroke:#990024;stroke-width:4;stroke-miterlimit:5.3041;}
</style>
<g id="XMLID_6_">
	<g>
		<path class="st0" d="M79,190.7L79,190.7c0,1.7,1.2,33.2,25.6,33.2c25,0,25.6,33.2,25.6,33.2"/>
		<path class="st0" d="M181.2,190.7c0,0,0,0.2-0.1,0.5c-0.8,4.3-6.7,32.7-25.5,32.7c-20.3,0-25.6,33.2-25.6,33.2"/>
		<path class="st0" d="M181.1,191.2L181.1,191.2c0.9,0.3,31.9,9.3,39.4-14.2c7.6-23.8,39.4-14.2,39.4-14.2"/>
		<path class="st0" d="M212.4,93.9c0,0,0.1,0,0.2,0.1c2.5,1.3,29.6,16,23.6,34.4c-6.2,19.3,23.8,34.5,23.8,34.5"/>
		<path class="st0" d="M210.5,9.7c-0.4,0.5-18.8,27.4,1.3,41.9c19.1,13.8,2.7,39.3,0.7,42.3c-0.1,0.2-0.2,0.3-0.2,0.3"/>
		<path class="st0" d="M130.2,33.7c0,0,23.7-23.9,40.2-12c16.3,11.8,39.9-11.7,40.2-12l0,0"/>
		<path class="st0" d="M130.2,34c0,0-0.1-0.1-0.2-0.3c-2.2-2.8-20.9-25.5-39.9-11.7C70,36.5,50.3,10.5,49.9,10"/>
		<path class="st0" d="M47.2,93.7c0,0,0-0.1-0.1-0.2c-1.2-2.4-14.3-30.4,1.4-41.7c16.3-11.7,1.7-41.3,1.4-41.9l0,0"/>
		<path class="st0" d="M47.4,93.5c0,0-0.1,0-0.3,0.1c-3,1.1-30.8,11.9-23.5,34.5C31.4,151.9,0,162.6,0,162.6"/>
		<path class="st0" d="M79,190.8L79,190.8c-0.5,0.1-33.3,5.1-39.5-14.1C33.2,157.4,0,162.6,0,162.6"/>
	</g>
</g>
<g id="XMLID_5_">
	<g>
		<polyline class="st0" points="130.1,120.6 130.1,157.8 130.1,158.2 130.1,158.6 		"/>
		<line class="st0" x1="130.1" y1="120.6" x2="166.2" y2="132.3"/>
		<polyline class="st0" points="130.1,120.6 152.3,90.1 152.3,90.1 152.4,89.9 		"/>
		<polyline class="st0" points="130.1,120.6 108.2,90.4 107.9,90.1 107.8,89.9 		"/>
		<line class="st0" x1="130.1" y1="120.6" x2="94" y2="132.3"/>
		<path class="st0" d="M152.2,90c0,0-1.3-12.5-11.2-12.5s-10.9-12.2-10.9-12.2"/>
		<path class="st0" d="M108,90c0,0,0-12.4,11.1-12.4s11.1-12.4,11.1-12.4"/>
		<path class="st0" d="M108.1,90.4c0,0-12.4-2.6-15.4,6.8c-3.1,9.4-15,6.6-15,6.6"/>
		<path class="st0" d="M94.4,132.6c0,0-0.2-0.1-0.5-0.2c-2.2-0.9-10.9-4.9-7.9-14.2c3.4-10.5-8.4-14.4-8.4-14.4"/>
		<path class="st0" d="M94.2,132c0,0-0.1,0.1-0.2,0.3c0,0,0,0,0,0.1c-1,1.9-5.3,11.2,1.8,16.4c7.8,5.7,1.9,15.9,1.6,16.3"/>
		<path class="st0" d="M129.9,158.2c0,0-7.3,10-16.2,3.5c-8.7-6.4-15.9,3-16.2,3.5l0,0"/>
		<path class="st0" d="M130,157.7C130,157.7,130.1,157.8,130,157.7c0.9,1,8.9,9.1,16.4,3.6c7.8-5.6,15.6,3.1,16,3.5"/>
		<path class="st0" d="M165.9,131.8c0,0,0.1,0.1,0.2,0.4l0.1,0.1c1.3,2.1,5.8,10.4-2,16c-8.8,6.3-2,16.1-1.7,16.5l0,0"/>
		<path class="st0" d="M166.2,132.2L166.2,132.2c0.4-0.2,11.5-5.4,8.4-14.6c-3.1-9.4,8.2-14.2,8.2-14.2"/>
		<path class="st0" d="M152.3,90.1c0,0,11.8-3.9,15.2,6.7c3.5,10.5,15.2,6.7,15.2,6.7"/>
	</g>
</g>
<line class="st0" x1="108" y1="90.5" x2="130.1" y2="120.6"/>
<line class="st0" x1="94.3" y1="132.2" x2="130.1" y2="120.6"/>
<line class="st0" x1="130.1" y1="157.5" x2="130.1" y2="120.6"/>
<line class="st0" x1="166" y1="132.2" x2="130.1" y2="120.6"/>
<line class="st0" x1="152.2" y1="90" x2="130.1" y2="120.6"/>
<polygon class="st0" points="134.2,124.8 131.7,123.1 132.2,126.1 130.6,123.5 130,126.5 129.5,123.5 127.7,126 128.4,123 
	125.9,124.7 127.6,122.2 124.6,122.7 127.2,121.1 124.2,120.5 127.2,120 124.7,118.2 127.7,118.9 126,116.4 128.5,118.1 128,115.1 
	129.6,117.7 130.2,114.7 130.7,117.7 132.5,115.2 131.8,118.2 134.3,116.5 132.6,119 135.6,118.5 133,120.1 136,120.7 133,121.2 
	135.5,123 132.5,122.3 "/>
<line class="st0" x1="47.3" y1="93.7" x2="78.6" y2="104"/>
<line class="st0" x1="130.1" y1="32.4" x2="129.8" y2="69.9"/>
<line class="st0" x1="213.4" y1="93.7" x2="181" y2="104"/>
<line class="st0" x1="181.2" y1="190.7" x2="160.5" y2="162.1"/>
<line class="st0" x1="79" y1="190.7" x2="97.4" y2="164.9"/>
<path class="st0" d="M129.5,99.4c0,0,1.2,2.2,4.6,0c3.3-2.2,4.4,0,4.4,0l-5.9,7.1c-1.5,1.8-4.3,1.9-5.9,0.1l-6.2-7.2
	c0,0,1.1-2.2,4.4,0C128.3,101.6,129.5,99.4,129.5,99.4"/>
<path class="st0" d="M108.9,114.7c0,0,2.4-0.5,1.4-4.3c-1-3.9,1.4-4.2,1.4-4.2l5,7.8c1.3,2,0.4,4.7-1.8,5.6l-8.8,3.7
	c0,0-1.7-1.7,1.4-4.2S108.9,114.7,108.9,114.7"/>
<path class="st0" d="M117.1,139.1c0,0,0.3-2.5-3.7-2.7s-3.6-2.6-3.6-2.6l8.9-2.3c2.3-0.6,4.6,1,4.8,3.4l0.8,9.5c0,0-2.1,1.1-3.6-2.6
	C119.3,138,117.1,139.1,117.1,139.1"/>
<path class="st0" d="M142.8,138.8c0,0-2.3-1-3.7,2.7s-3.6,2.6-3.6,2.6l0.6-9.2c0.1-2.4,2.4-4.1,4.7-3.5l9.2,2.2c0,0,0.4,2.4-3.6,2.6
	C142.5,136.3,142.8,138.8,142.8,138.8"/>
<path class="st0" d="M150.4,114.3c0,0-1.7,1.8,1.4,4.3c3.1,2.5,1.4,4.2,1.4,4.2l-8.6-3.4c-2.2-0.9-3.1-3.5-1.9-5.6l4.9-8.1
	c0,0,2.4,0.3,1.4,4.2C148,113.8,150.4,114.3,150.4,114.3"/>
<g id="g23677_9_" transform="matrix(-0.95099005,0,0,-0.95099005,-291.68914,-1688.9881)">
	<path id="path23679_9_" class="st1" d="M-444.1-1810.9c21.5,18,16.2,12.6,15.9,20.3c-3.6-0.3-4.8-1.4-6.5-3.5
		c0.6,5.1-2.6,6.7-8.7,12.9c-6.1-6.1-9.3-7.7-8.7-12.9c-1.7,2.1-3,3.2-6.5,3.5C-460.2-1800.1-465.6-1794.8-444.1-1810.9z"/>
	<path class="st0" d="M-427-1797.5"/>
</g>
<g id="g23677_8_" transform="matrix(-0.95099005,0,0,-0.95099005,-291.68914,-1688.9881)">
	<path id="path23679_8_" class="st1" d="M-355.5-1874c23.7-14.9,16.9-11.5,24.2-8.8c-1.4,3.3-2.8,4.2-5.4,5.1
		c5.1,1,5.6,4.5,9.6,12.2c-7.7,3.9-10.2,6.4-14.9,4.3c1.5,2.3,2.1,3.8,1.3,7.3C-350.3-1855.3-346.8-1848.5-355.5-1874z"/>
	<path class="st0" d="M-337.4-1886"/>
</g>
<g id="g23677_7_" transform="matrix(-0.95099005,0,0,-0.95099005,-291.68914,-1688.9881)">
	<path id="path23679_7_" class="st1" d="M-388.9-1977.6c-6.9-27.2-5.7-19.7-0.9-25.7c2.7,2.4,3.1,4,3.2,6.7
		c2.5-4.5,6.1-3.9,14.6-5.3c1.3,8.5,3,11.7-0.6,15.5c2.6-0.7,4.3-0.8,7.3,1C-369.5-1976.8-361.9-1978-388.9-1977.6z"/>
	<path class="st0" d="M-394.7-1998.5"/>
</g>
<g id="g23677_6_" transform="matrix(-0.95099005,0,0,-0.95099005,-291.68914,-1688.9881)">
	<path id="path23679_6_" class="st1" d="M-497.7-1977.9c-28-1.9-20.5-0.7-24.8-7.1c3.1-1.8,4.7-1.7,7.3-1c-3.5-3.8-1.9-7-0.6-15.5
		c8.5,1.4,12,0.8,14.6,5.3c0.1-2.7,0.5-4.3,3.2-6.7C-491-1996.1-489.8-2003.7-497.7-1977.9z"/>
	<path class="st0" d="M-519.5-1978.8"/>
</g>
<g id="g23677_5_" transform="matrix(-0.95099005,0,0,-0.95099005,-291.68914,-1688.9881)">
	<path id="path23679_5_" class="st1" d="M-531.7-1874.5c-10.4,26-7,19.3-14.4,21.4c-0.8-3.5-0.2-5,1.3-7.3
		c-4.7,2.2-7.2-0.4-14.9-4.3c4-7.7,4.5-11.2,9.6-12.2c-2.6-0.9-3.9-1.8-5.4-5.1C-546.9-1886.5-553.7-1890-531.7-1874.5z"/>
	<path class="st0" d="M-539.2-1854.1"/>
</g>
</svg>
