<?xml version="1.0" encoding="utf-8"?>
<!-- Generator: Adobe Illustrator 24.1.1, SVG Export Plug-In . SVG Version: 6.00 Build 0)  -->
<svg version="1.1" id="Layer_1" xmlns="http://www.w3.org/2000/svg" xmlns:xlink="http://www.w3.org/1999/xlink" x="0px" y="0px"
	 viewBox="0 0 316.5 284.5" style="enable-background:new 0 0 316.5 284.5;" xml:space="preserve">
<style type="text/css">
	.st0{fill:#181616;}
	.st1{fill:none;}
</style>
<path class="st0" d="M278.6,142.7c0-12.4-1.9-24.4-5.4-35.7l-53.5,138.8C254.9,225,278.6,186.6,278.6,142.7L278.6,142.7z"/>
<path class="st0" d="M120.9,256.3c11.9,4,24.7,6.2,37.9,6.2c13.9,0,27.2-2.3,39.6-6.7L161.9,161L120.9,256.3L120.9,256.3z"/>
<path class="st0" d="M44,108.8c-3.2,10.7-4.9,22.1-4.9,33.8c0,44.9,24.7,84,61.2,104.5l-56-137.6L44,108.8L44,108.8z"/>
<path class="st0" d="M105,101.1l-5.1-0.2c-11.2-0.2-10,11.5-10,11.5l39.8,99.9l26.8-63.9l-14.9-38c-6-10.1-20.6-10-20.6-10V95h83.7
	l-0.1,5.9l-8.7,0.5c-10.8,0-8.7,10.3-8.7,10.3l36.3,97l10.4-26.9C252.4,140,241,109,241,109c-18.5-38.1,4.9-43.5,4.9-43.5
	c1.5-0.2,2.9-0.3,4.2-0.4c-22-25.8-54.7-42.2-91.2-42.2c-49.4,0-91.8,29.9-110.1,72.6l56-0.6L105,101.1L105,101.1z"/>
<path class="st0" d="M293.4,142.3c0,74.2-60.4,134.6-134.6,134.6c-74.2,0-134.6-60.4-134.6-134.6C24.2,68,84.6,7.7,158.8,7.7
	C233,7.7,293.4,68,293.4,142.3z M158.8,1.5C81.2,1.5,18,64.6,18,142.3S81.2,283,158.8,283c77.6,0,140.7-63.1,140.7-140.8
	C299.5,64.6,236.4,1.5,158.8,1.5z"/>
<rect id="_x3C_Slice_x3E_" x="0" y="1.9" class="st1" width="316.5" height="281.6"/>
</svg>
